<svg id="Layer_1" enable-background="new 0 0 512 512" height="512" viewBox="0 0 512 512" width="512" xmlns="http://www.w3.org/2000/svg"><g><path d="m256 415.6c-8.284 0-15-6.716-15-15v-80.333c0-8.284 6.716-15 15-15s15 6.716 15 15v80.333c0 8.284-6.716 15-15 15z" fill="#ffb454"/><path d="m175.667 287.067c-43.708 0-79.267-35.559-79.267-79.267v-32.133c0-8.284 6.716-15 15-15h64.267c8.284 0 15 6.716 15 15s-6.716 15-15 15h-49.267v17.133c0 27.166 22.101 49.267 49.267 49.267 8.284 0 15 6.716 15 15s-6.716 15-15 15z" fill="#ffcb00"/><path d="m336.333 287.067c-8.284 0-15-6.716-15-15s6.716-15 15-15c27.166 0 49.267-22.101 49.267-49.267v-17.133h-49.267c-8.284 0-15-6.716-15-15s6.716-15 15-15h64.267c8.284 0 15 6.716 15 15v32.133c0 43.708-35.559 79.267-79.267 79.267z" fill="#ffb454"/><g><path d="m421.821 68.965-23.529 23.53c-5.858 5.858-5.858 15.355 0 21.213 5.857 5.857 15.355 5.858 21.213 0l23.529-23.53c5.858-5.858 5.858-15.355 0-21.213-5.857-5.858-15.355-5.858-21.213 0z" fill="#ffcb00"/><path d="m92.495 398.292-23.529 23.53c-5.858 5.858-5.858 15.355 0 21.213 5.857 5.857 15.355 5.858 21.213 0l23.529-23.53c5.858-5.858 5.858-15.356 0-21.213-5.857-5.858-15.355-5.858-21.213 0z" fill="#ffe705"/><path d="m90.179 68.965c-5.857-5.858-15.355-5.858-21.213 0s-5.858 15.355 0 21.213l23.529 23.53c5.857 5.858 15.355 5.858 21.213 0s5.858-15.356 0-21.213z" fill="#ffe705"/><path d="m419.505 398.292c-5.857-5.858-15.355-5.858-21.213 0s-5.858 15.355 0 21.213l23.529 23.53c5.857 5.858 15.355 5.858 21.213 0s5.858-15.355 0-21.213z" fill="#ffcb00"/><path d="m324.459.515c-8.001-2.144-16.227 2.604-18.371 10.607l-8.612 32.142c-2.145 8.002 2.604 16.227 10.607 18.371 8.001 2.144 16.227-2.605 18.371-10.607l8.612-32.142c2.144-8.002-2.605-16.227-10.607-18.371z" fill="#ffcb00"/><path d="m203.917 450.365c-8.001-2.144-16.227 2.605-18.371 10.607l-8.612 32.142c-2.145 8.002 2.604 16.227 10.607 18.371 8.001 2.144 16.227-2.605 18.371-10.607l8.612-32.142c2.144-8.002-2.604-16.227-10.607-18.371z" fill="#ffe705"/><path d="m51.028 185.547-32.142-8.613c-8.002-2.145-16.227 2.605-18.371 10.606-2.145 8.002 2.604 16.227 10.607 18.371l32.142 8.613c8.002 2.145 16.227-2.605 18.371-10.606 2.144-8.002-2.605-16.228-10.607-18.371z" fill="#ffe705"/><path d="m500.878 306.089-32.142-8.613c-8.002-2.145-16.227 2.605-18.371 10.606-2.145 8.002 2.604 16.227 10.607 18.371l32.142 8.613c8.002 2.145 16.227-2.605 18.371-10.606 2.145-8.002-2.604-16.227-10.607-18.371z" fill="#ffcb00"/><path d="m205.912 11.122c-2.143-8.002-10.369-12.751-18.371-10.607s-12.751 10.369-10.607 18.371l8.612 32.142c2.143 8.002 10.369 12.751 18.371 10.607s12.751-10.369 10.607-18.371z" fill="#ffe705"/><path d="m326.453 460.972c-2.143-8.002-10.369-12.751-18.371-10.607s-12.751 10.369-10.607 18.371l8.612 32.142c2.143 8.002 10.369 12.751 18.371 10.607s12.751-10.369 10.607-18.371z" fill="#ffcb00"/><path d="m468.736 214.524 32.142-8.613c8.002-2.144 12.751-10.369 10.607-18.371-2.144-8.001-10.369-12.751-18.371-10.606l-32.142 8.613c-8.002 2.144-12.751 10.369-10.607 18.371 2.144 8.001 10.369 12.751 18.371 10.606z" fill="#ffcb00"/><path d="m43.264 297.476-32.142 8.613c-8.003 2.144-12.752 10.369-10.607 18.371 2.144 8.001 10.369 12.751 18.371 10.606l32.142-8.613c8.002-2.144 12.751-10.369 10.607-18.371-2.144-8.001-10.369-12.751-18.371-10.606z" fill="#ffe705"/></g><path d="m256 335.267c-52.566 0-95.333-42.767-95.333-95.334v-96.4c0-8.284 6.716-15 15-15h160.666c8.284 0 15 6.716 15 15v96.4c0 52.567-42.767 95.334-95.333 95.334z" fill="#ffe705"/><path d="m304.2 415.6h-96.4c-8.284 0-15-6.716-15-15s6.716-15 15-15h96.4c8.284 0 15 6.716 15 15s-6.716 15-15 15z" fill="#ffe705"/><g fill="#ffcb00"><path d="m351.333 239.933v-96.4c0-8.284-6.716-15-15-15h-80.333v206.733c52.566.001 95.333-42.766 95.333-95.333z"/><path d="m319.2 400.6c0-8.284-6.716-15-15-15h-48.2v30h48.2c8.284 0 15-6.716 15-15z"/></g></g></svg>