<svg id="Layer_2_00000036218106668793265950000017128314318897354129_" enable-background="new 0 0 512 512" height="512" viewBox="0 0 512 512" width="512" xmlns="http://www.w3.org/2000/svg" xmlns:xlink="http://www.w3.org/1999/xlink"><linearGradient id="lg1"><stop offset="0" stop-color="#64b5f6"/><stop offset="1" stop-color="#1976d2"/></linearGradient><linearGradient id="SVGID_1_" gradientTransform="matrix(1 0 0 -1 0 514)" gradientUnits="userSpaceOnUse" x1="22.866" x2="338.866" xlink:href="#lg1" y1="294.261" y2="-21.739"/><linearGradient id="SVGID_00000177462374654124310290000010124181291164070548_" gradientTransform="matrix(1 0 0 -1 0 514)" gradientUnits="userSpaceOnUse" x1="97.99" x2="413.995" xlink:href="#lg1" y1="369.385" y2="53.38"/><g id="Social_Icon"><g id="Bell-2"><path d="m186.295 434.57h139.4v7.73c0 38.49-31.21 69.7-69.7 69.7-38.49 0-69.7-31.21-69.7-69.7z" fill="url(#SVGID_1_)"/><path d="m469.275 360.66-38.18-38.17c-9.38-9.38-14.65-22.1-14.65-35.36v-69.12c0-76.89-55.21-140.88-128.15-154.51v-31.19c0-17.84-14.47-32.31-32.31-32.31-17.84 0-32.31 14.47-32.31 32.31v31.19c-72.93 13.63-128.14 77.62-128.14 154.51v69.12c0 13.26-5.27 25.98-14.64 35.36l-38.18 38.18c-5.92 5.92-9.25 13.95-9.25 22.33 0 17.44 14.14 31.58 31.58 31.58h381.91c17.44 0 31.58-14.14 31.58-31.58 0-8.38-3.33-16.41-9.25-22.33z" fill="url(#SVGID_00000177462374654124310290000010124181291164070548_)"/></g></g></svg>