<svg clip-rule="evenodd" fill-rule="evenodd" height="64" image-rendering="optimizeQuality" shape-rendering="geometricPrecision" text-rendering="geometricPrecision" viewBox="0 0 957 957" width="64" xmlns="http://www.w3.org/2000/svg"><g id="Layer_x0020_1"><g id="_995458592"><path d="m0 0h957v957h-957z" fill="none"/><path d="m80 335 161 238c13 19 34 30 58 30 23 0 45-11 58-30l157-232c2-3 4-7 6-10 5-10 15-15 26-15h116c31 0 56 0 84 35l171 214c27 31 40 66 40 107v114c0 32-25 57-57 57h-35c-7 0-13-5-14-13-10-69-70-122-141-122-72 0-131 53-142 122-1 8-7 13-14 13h-191c-8 0-14-5-15-13-10-69-69-122-141-122s-131 53-141 122c-1 8-9 14-17 13-27-4-49-28-49-57v-413c0-28 20-51 46-56 16-3 25 4 34 18zm668 100 92 108c10 12 12 27 6 41-7 14-20 22-35 22h-207c-21 0-38-17-38-38v-108c0-21 17-38 38-38h115c11 0 21 4 29 13z" fill="#303c47"/><g fill="#0070b7"><path d="m207 745c58 0 106 48 106 106 0 59-48 106-106 106-59 0-106-47-106-106 0-58 47-106 106-106zm0 54c29 0 52 23 52 52s-23 52-52 52-52-23-52-52 23-52 52-52z"/><path d="m710 745c58 0 105 48 105 106 0 59-47 106-105 106-59 0-106-47-106-106 0-58 47-106 106-106zm0 54c29 0 52 23 52 52s-23 52-52 52-53-23-53-52 24-52 53-52z"/><path d="m471 314-156 230c-4 6-10 9-16 9-7 0-13-3-16-9l-157-230c-20-32-31-69-31-110 0-113 91-204 204-204s204 91 204 204c0 41-12 78-32 110zm-172-221c-62 0-112 50-112 111 0 62 50 112 112 112 61 0 111-50 111-112 0-61-50-111-111-111z"/></g></g></g></svg>