<svg width="20" height="20" viewBox="0 0 20 20" fill="none" xmlns="http://www.w3.org/2000/svg">
<g clip-path="url(#clip0_1669_1068)">
<path d="M19.5157 15.9167C19.1201 16.3917 18.534 16.6665 17.9157 16.6667H2.08242C1.46422 16.6665 0.878046 16.3917 0.482422 15.9167L8.12409 9.55005L8.91577 10.0917C9.56791 10.5417 10.4303 10.5417 11.0824 10.0917L11.8741 9.55005L19.5157 15.9167Z" fill="#1E88E5"/>
<path d="M19.6338 4.24176L11.8755 9.55007L11.0838 10.0917C10.4317 10.5417 9.56928 10.5417 8.91713 10.0917L8.12545 9.55007L0.367188 4.2334C0.757577 3.67047 1.39879 3.3343 2.08386 3.3334H17.9172C18.6053 3.32977 19.2497 3.67071 19.6338 4.24176Z" fill="#64B5F6"/>
<path d="M8.12502 9.55003L0.483356 15.9167C0.170584 15.5429 -0.000548905 15.0708 3.70314e-05 14.5834V5.41672C-0.00250203 4.99394 0.125584 4.58066 0.366716 4.2334L8.12502 9.55003Z" fill="#2196F3"/>
<path d="M20 5.4167V14.5834C20.0005 15.0708 19.8294 15.5428 19.5167 15.9167L11.875 9.55001L19.6333 4.2417C19.8732 4.58646 20.0012 4.99666 20 5.4167Z" fill="#2196F3"/>
</g>
<defs>
<clipPath id="clip0_1669_1068">
<rect width="20" height="20" fill="white"/>
</clipPath>
</defs>
</svg>
