<svg clip-rule="evenodd" fill-rule="evenodd" height="512" stroke-linejoin="round" stroke-miterlimit="2" viewBox="0 0 32 32" width="512" xmlns="http://www.w3.org/2000/svg"><path d="m15 3.038c-6.378.486-11.476 5.584-11.962 11.962h-1.038c-.552 0-1 .448-1 1s.448 1 1 1h1.038c.486 6.378 5.584 11.476 11.962 11.962v1.038c0 .552.448 1 1 1s1-.448 1-1v-1.038c6.378-.486 11.476-5.584 11.962-11.962h1.038c.552 0 1-.448 1-1s-.448-1-1-1h-1.038c-.486-6.378-5.584-11.476-11.962-11.962v-1.038c0-.552-.448-1-1-1s-1 .448-1 1zm2 2.007v.955c0 .552-.448 1-1 1s-1-.448-1-1v-.955c-5.274.476-9.479 4.681-9.955 9.955h.955c.552 0 1 .448 1 1s-.448 1-1 1h-.955c.476 5.274 4.681 9.479 9.955 9.955v-.955c0-.552.448-1 1-1s1 .448 1 1v.955c5.274-.476 9.479-4.681 9.955-9.955h-.955c-.552 0-1-.448-1-1s.448-1 1-1h.955c-.476-5.274-4.681-9.479-9.955-9.955zm-1 3.955c-3.863 0-7 3.137-7 7s3.137 7 7 7 7-3.137 7-7-3.137-7-7-7z"/></svg>