<svg width="20" height="20" viewBox="0 0 20 20" fill="none" xmlns="http://www.w3.org/2000/svg">
<g clip-path="url(#clip0_1669_1080)">
<path d="M18.1103 1.88938C15.6025 -0.630117 11.5127 -0.630117 9.00488 1.88938C7.28219 3.60035 6.68453 6.13164 7.43453 8.42848C4.78613 11.0652 2.81254 13.0388 0.17582 15.6873C0.0585938 15.7927 0 15.945 0 16.0974V19.4138C0 19.5779 0.0585938 19.7184 0.17582 19.8239C0.28125 19.9411 0.421875 19.9998 0.585938 19.9998H3.90238C4.05473 19.9998 4.20707 19.9411 4.3125 19.8239C4.61719 19.531 4.83984 19.2966 5.14457 19.0036C5.27348 18.8747 5.33203 18.6989 5.30863 18.5232C5.27344 18.195 5.23832 17.949 5.20312 17.6326C5.64844 17.5857 5.98824 17.5505 6.44531 17.5154C6.72656 17.4802 6.93746 17.2693 6.97266 16.9881C7.00777 16.5428 7.04297 16.1912 7.0898 15.7459C7.40625 15.7927 7.65234 15.8162 7.98043 15.8513C8.30859 15.8982 8.62496 15.6287 8.62496 15.2771V14.1795H9.70312C9.85547 14.1795 10.0077 14.1404 10.1132 14.0232C10.6523 13.4841 11.0322 13.116 11.5713 12.5652C13.8681 13.3152 16.3994 12.7176 18.1103 10.9949C20.6299 8.48703 20.6299 4.39723 18.1103 1.88938ZM16.458 6.02613C15.7783 6.71758 14.6533 6.71758 13.9736 6.02613C13.2822 5.34641 13.2822 4.22148 13.9736 3.54176C14.6533 2.85031 15.7783 2.85031 16.458 3.54176C17.1494 4.22148 17.1494 5.34645 16.458 6.02613Z" fill="#4294FF"/>
<path d="M18.1103 10.9951C16.3994 12.7178 13.8681 13.3153 11.5712 12.5654C11.0321 13.1162 10.6523 13.4844 10.1132 14.0234C10.0077 14.1406 9.85547 14.1796 9.70312 14.1796H8.62496V15.2773C8.62496 15.6288 8.30859 15.8984 7.98043 15.8515C7.65234 15.8164 7.40621 15.7929 7.0898 15.746C7.04297 16.1914 7.00777 16.5429 6.97266 16.9882C6.93746 17.2695 6.72652 17.4804 6.44531 17.5156C5.98828 17.5507 5.64844 17.5859 5.20312 17.6327C5.23832 17.9492 5.27344 18.1952 5.30863 18.5234C5.33203 18.6991 5.27344 18.8749 5.14457 19.0038C4.83988 19.2968 4.61723 19.5311 4.3125 19.8241C4.20707 19.9412 4.05473 19.9999 3.90238 19.9999H0.585898C0.421836 19.9999 0.281211 19.9413 0.175781 19.8241L13.9736 6.02628C14.6533 6.71773 15.7783 6.71773 16.458 6.02628C17.1494 5.34656 17.1494 4.22164 16.458 3.54191L18.1103 1.88953C20.6298 4.39742 20.6298 8.48722 18.1103 10.9951Z" fill="#79B3FF"/>
</g>
<defs>
<clipPath id="clip0_1669_1080">
<rect width="20" height="20" fill="white"/>
</clipPath>
</defs>
</svg>
