<svg id="Capa_1" enable-background="new 0 0 510.062 510.062" height="512" viewBox="0 0 510.062 510.062" width="512" xmlns="http://www.w3.org/2000/svg" xmlns:xlink="http://www.w3.org/1999/xlink"><linearGradient id="lg1"><stop offset="0" stop-color="#fef0ae"/><stop offset="1" stop-color="#fac600"/></linearGradient><linearGradient id="SVGID_1_" gradientUnits="userSpaceOnUse" x1="465.549" x2="539.234" xlink:href="#lg1" y1="249.062" y2="263.002"/><linearGradient id="SVGID_00000163064962489535724630000008453705885057172653_" gradientUnits="userSpaceOnUse" x1="-18.925" x2="54.76" xlink:href="#lg1" y1="249.062" y2="263.002"/><linearGradient id="SVGID_00000060709566062571640530000002857288872651567247_" gradientUnits="userSpaceOnUse" x1="400.139" x2="460.955" xlink:href="#lg1" y1="78.822" y2="90.328"/><linearGradient id="SVGID_00000181055670851910888140000009722907088511101082_" gradientUnits="userSpaceOnUse" x1="54.091" x2="122.975" xlink:href="#lg1" y1="78.165" y2="91.197"/><linearGradient id="SVGID_00000029029708830528497040000013172499038569119919_" gradientUnits="userSpaceOnUse" x1="447.69" x2="521.3" xlink:href="#lg1" y1="340.434" y2="354.36"/><linearGradient id="SVGID_00000025400488290495343970000015249513995035679893_" gradientUnits="userSpaceOnUse" x1="-1.002" x2="72.609" xlink:href="#lg1" y1="157.701" y2="171.628"/><linearGradient id="SVGID_00000114042197416731254330000000841659826841049474_" gradientUnits="userSpaceOnUse" x1="448.526" x2="517.63" xlink:href="#lg1" y1="155.404" y2="168.478"/><linearGradient id="SVGID_00000021107713096750382270000012052362303435073690_" gradientUnits="userSpaceOnUse" x1="2.042" x2="71.146" xlink:href="#lg1" y1="343.465" y2="356.539"/><linearGradient id="lg2"><stop offset="0" stop-color="#fd8087"/><stop offset="1" stop-color="#e74335"/></linearGradient><linearGradient id="SVGID_00000142164085761319001050000006483930282672136127_" gradientUnits="userSpaceOnUse" x1="178.448" x2="214.816" xlink:href="#lg2" y1="42.638" y2="143.082"/><linearGradient id="SVGID_00000088099836157761800860000018308612057036705159_" gradientUnits="userSpaceOnUse" x1="244.152" x2="280.52" xlink:href="#lg2" y1="18.848" y2="119.293"/><linearGradient id="SVGID_00000175293224053551848340000009865394711789482652_" gradientUnits="userSpaceOnUse" x1="309.127" x2="345.495" xlink:href="#lg2" y1="-4.677" y2="95.767"/><linearGradient id="SVGID_00000111883962407436138050000012215976927009860496_" gradientUnits="userSpaceOnUse" x1="117.995" x2="422.658" xlink:href="#lg2" y1="199.484" y2="504.147"/><linearGradient id="SVGID_00000147221424645949579020000015617861587393619866_" gradientUnits="userSpaceOnUse" x1="302.308" x2="350.158" xlink:href="#lg1" y1="244.968" y2="292.818"/><linearGradient id="lg3"><stop offset="0" stop-color="#e41f2d" stop-opacity="0"/><stop offset=".3461" stop-color="#de1e2b" stop-opacity=".346"/><stop offset=".8036" stop-color="#ce1b28" stop-opacity=".804"/><stop offset="1" stop-color="#c41926"/></linearGradient><linearGradient id="SVGID_00000129898142865574205750000014090305641114413987_" gradientUnits="userSpaceOnUse" x1="334.328" x2="334.328" xlink:href="#lg3" y1="277.741" y2="347.734"/><linearGradient id="SVGID_00000115479072584406754810000007466630769114357645_" gradientTransform="matrix(.707 -.707 .707 .707 1625.814 -1730.7)" gradientUnits="userSpaceOnUse" x1="-2332.868" x2="-2332.868" xlink:href="#lg3" y1="507.185" y2="580.86"/><linearGradient id="SVGID_00000051364922028088900590000013431886547303719563_" gradientUnits="userSpaceOnUse" x1="143.714" x2="191.564" xlink:href="#lg1" y1="244.968" y2="292.818"/><linearGradient id="SVGID_00000106141070109179711570000009010886967771679670_" gradientUnits="userSpaceOnUse" x1="175.734" x2="175.734" xlink:href="#lg3" y1="277.741" y2="347.734"/><linearGradient id="SVGID_00000113342669956232476680000009641484319294006145_" gradientTransform="matrix(.707 -.707 .707 .707 1625.814 -1730.7)" gradientUnits="userSpaceOnUse" x1="-2445.011" x2="-2445.011" xlink:href="#lg3" y1="395.042" y2="468.718"/><linearGradient id="SVGID_00000017490405892774841000000007052512110190776240_" gradientUnits="userSpaceOnUse" x1="236.822" x2="291.467" y1="346.132" y2="346.132"><stop offset="0" stop-color="#eaf9fa"/><stop offset="1" stop-color="#b3dafe"/></linearGradient><linearGradient id="SVGID_00000026133764849733563220000009469172443476224187_" gradientUnits="userSpaceOnUse" x1="255.031" x2="255.031" xlink:href="#lg3" y1="240.063" y2="420.163"/><linearGradient id="SVGID_00000139979435680212085050000017817985902555188119_" gradientUnits="userSpaceOnUse" x1="257.031" x2="433.06" xlink:href="#lg3" y1="286.215" y2="286.215"/><linearGradient id="SVGID_00000044154536233834469800000016261946481021355919_" gradientUnits="userSpaceOnUse" x1="190.174" x2="487.174" xlink:href="#lg3" y1="313.758" y2="235.758"/><linearGradient id="SVGID_00000001653548388743417680000002109102659850624669_" gradientUnits="userSpaceOnUse" x1="255.031" x2="255.031" y1="441.063" y2="483.11"><stop offset="0" stop-color="#5a5a5a"/><stop offset="1" stop-color="#444"/></linearGradient><linearGradient id="SVGID_00000008115368111755771250000009956986001773836689_" gradientUnits="userSpaceOnUse" x1="255.031" x2="255.031" y1="-1.938" y2="202.063"><stop offset="0" stop-color="#fff"/><stop offset="1" stop-color="#eaf6ff" stop-opacity="0"/></linearGradient><g><g><path d="m502.546 247.577h-10.556c-4.134 0-7.485 3.351-7.485 7.485s3.351 7.485 7.485 7.485h10.555c4.134 0 7.485-3.351 7.485-7.485.001-4.134-3.35-7.485-7.484-7.485z" fill="url(#SVGID_1_)"/><path d="m25.557 255.062c0-4.134-3.351-7.485-7.485-7.485h-10.555c-4.134 0-7.485 3.351-7.485 7.485s3.351 7.485 7.485 7.485h10.555c4.135.001 7.485-3.35 7.485-7.485z" fill="url(#SVGID_00000163064962489535724630000008453705885057172653_)"/><path d="m424.758 74.75-7.464 7.464c-2.924 2.924-2.924 7.662 0 10.586 2.923 2.924 7.662 2.924 10.586 0l7.464-7.464c2.923-2.924 2.923-7.662 0-10.586s-7.663-2.923-10.586 0z" fill="url(#SVGID_00000060709566062571640530000002857288872651567247_)"/><path d="m85.305 74.75c-2.923-2.923-7.662-2.923-10.586 0s-2.923 7.662 0 10.586l7.464 7.464c2.923 2.924 7.662 2.924 10.586 0 2.924-2.923 2.924-7.662 0-10.586z" fill="url(#SVGID_00000181055670851910888140000009722907088511101082_)"/><path d="m487.088 341.487-9.776-3.981c-3.829-1.559-8.196.28-9.756 4.109-1.559 3.829.28 8.196 4.109 9.756l9.776 3.981c3.829 1.559 8.196-.28 9.756-4.109s-.28-8.197-4.109-9.756z" fill="url(#SVGID_00000029029708830528497040000013172499038569119919_)"/><path d="m22.975 168.638 9.776 3.981c3.829 1.559 8.196-.28 9.756-4.109 1.559-3.829-.28-8.196-4.109-9.756l-9.776-3.981c-3.829-1.559-8.196.28-9.756 4.109s.279 8.197 4.109 9.756z" fill="url(#SVGID_00000025400488290495343970000015249513995035679893_)"/><path d="m476.315 169.979 9.728-4.097c3.81-1.605 5.598-5.994 3.993-9.804s-5.994-5.598-9.804-3.993l-9.728 4.097c-3.81 1.605-5.598 5.994-3.993 9.804 1.605 3.811 5.994 5.598 9.804 3.993z" fill="url(#SVGID_00000114042197416731254330000000841659826841049474_)"/><path d="m33.747 340.146-9.728 4.097c-3.81 1.605-5.598 5.994-3.993 9.804s5.994 5.598 9.804 3.993l9.728-4.097c3.81-1.605 5.598-5.994 3.993-9.804-1.605-3.811-5.993-5.598-9.804-3.993z" fill="url(#SVGID_00000021107713096750382270000012052362303435073690_)"/></g><g><path d="m192.98 71.655c0-16.027-41.987-13.245-41.987-44.238 0-19.868 17.351-27.417 33.907-27.417 7.02 0 26.357 1.324 26.357 11.655 0 3.575-2.384 10.86-8.212 10.86-4.768 0-7.285-5.033-18.145-5.033-9.404 0-13.245 3.842-13.245 7.948 0 13.244 41.986 10.727 41.986 44.106 0 19.072-13.907 29.404-33.111 29.404-17.352 0-31.92-8.477-31.92-17.219 0-4.503 3.973-11.126 9.007-11.126 6.224 0 10.197 9.802 22.516 9.802 6.091-.001 12.847-2.384 12.847-8.742z" fill="url(#SVGID_00000142164085761319001050000006483930282672136127_)"/><path d="m222.779 67.151v-35.099c0-22.782 14.173-31.259 32.45-31.259 18.278 0 32.583 8.477 32.583 31.259v35.099c0 22.782-14.305 31.259-32.583 31.259-18.277 0-32.45-8.477-32.45-31.259zm44.37-35.099c0-9.139-4.503-13.245-11.92-13.245s-11.787 4.106-11.787 13.245v35.099c0 9.14 4.37 13.245 11.787 13.245s11.92-4.105 11.92-13.245z" fill="url(#SVGID_00000088099836157761800860000018308612057036705159_)"/><path d="m340.791 71.655c0-16.027-41.987-13.245-41.987-44.238 0-19.868 17.351-27.417 33.907-27.417 7.02 0 26.357 1.324 26.357 11.655 0 3.575-2.384 10.86-8.211 10.86-4.769 0-7.285-5.033-18.147-5.033-9.404 0-13.244 3.842-13.244 7.948 0 13.244 41.986 10.727 41.986 44.106 0 19.072-13.907 29.404-33.112 29.404-17.35 0-31.92-8.477-31.92-17.219 0-4.503 3.973-11.126 9.007-11.126 6.225 0 10.199 9.802 22.517 9.802 6.092-.001 12.847-2.384 12.847-8.742z" fill="url(#SVGID_00000175293224053551848340000009865394711789482652_)"/></g><g><path d="m269.751 110.113h-29.439c-94.856 0-171.752 76.896-171.752 171.752v180.452h372.943v-180.452c0-94.856-76.896-171.752-171.752-171.752z" fill="url(#SVGID_00000111883962407436138050000012215976927009860496_)"/><g><g><circle cx="334.328" cy="276.988" fill="url(#SVGID_00000147221424645949579020000015617861587393619866_)" r="59.499"/><path d="m274.829 276.988c0 32.861 26.639 59.499 59.499 59.499 32.861 0 59.5-26.639 59.5-59.499 0-7.117-1.254-13.94-3.545-20.265h-111.909c-2.292 6.326-3.545 13.148-3.545 20.265z" fill="url(#SVGID_00000129898142865574205750000014090305641114413987_)"/><path d="m292.256 319.061c23.236 23.236 60.909 23.236 84.145 0s23.236-60.909 0-84.145c-5.032-5.032-10.743-8.97-16.837-11.823l-79.131 79.131c2.852 6.093 6.79 11.804 11.823 16.837z" fill="url(#SVGID_00000115479072584406754810000007466630769114357645_)"/></g><g><circle cx="175.734" cy="276.988" fill="url(#SVGID_00000051364922028088900590000013431886547303719563_)" r="59.499"/><path d="m116.235 276.988c0 32.861 26.639 59.499 59.499 59.499 32.861 0 59.499-26.639 59.499-59.499 0-7.117-1.254-13.94-3.545-20.265h-111.908c-2.291 6.326-3.545 13.148-3.545 20.265z" fill="url(#SVGID_00000106141070109179711570000009010886967771679670_)"/><path d="m133.662 319.061c23.236 23.236 60.909 23.236 84.145 0s23.236-60.909 0-84.145c-5.032-5.032-10.743-8.97-16.837-11.823l-79.131 79.131c2.853 6.093 6.791 11.804 11.823 16.837z" fill="url(#SVGID_00000113342669956232476680000009641484319294006145_)"/></g></g><path d="m294.858 469.401h-79.654l11.329-222.28c.693-13.594 11.917-24.26 25.528-24.26h5.941c13.611 0 24.835 10.666 25.528 24.26z" fill="url(#SVGID_00000017490405892774841000000007052512110190776240_)"/><path d="m68.56 281.865v180.452h372.943v-180.452c0-26.028-5.801-50.697-16.162-72.803h-340.619c-10.362 22.106-16.162 46.776-16.162 72.803z" fill="url(#SVGID_00000026133764849733563220000009469172443476224187_)"/><path d="m269.751 110.113h-29.439c-29.406 0-57.083 7.396-81.281 20.42v331.784h282.471v-180.452c.001-94.856-76.895-171.752-171.751-171.752z" fill="url(#SVGID_00000139979435680212085050000017817985902555188119_)"/><path d="m255.031 110.113c-50.81 0-92 41.19-92 92v260.204h184v-260.204c0-50.81-41.19-92-92-92z" fill="url(#SVGID_00000044154536233834469800000016261946481021355919_)"/><path d="m467.816 510.062h-425.57c-11.094 0-19.2-10.476-16.415-21.215 9.179-35.393 41.121-60.107 77.684-60.107h303.031c36.564 0 68.505 24.714 77.684 60.107 2.786 10.739-5.32 21.215-16.414 21.215z" fill="url(#SVGID_00000001653548388743417680000002109102659850624669_)"/><ellipse cx="255.031" cy="206.562" fill="url(#SVGID_00000008115368111755771250000009956986001773836689_)" rx="107" ry="79.5"/></g></g></svg>