<svg viewBox="0 0 512 512" xmlns="http://www.w3.org/2000/svg"><g id="Layer_2" data-name="Layer 2"><g id="Layer_copy_6" data-name="Layer copy 6"><g id="_12" data-name="12"><g id="background"><circle cx="256" cy="256" fill="#ff4c4c" r="256"/></g><path d="m358.49 316.16a113.18 113.18 0 0 1 -6.07 36.37c-11.9 35.13-41.46 56.38-78.53 56a99.12 99.12 0 0 1 -17.43-1.72l-.46-.09c-19.78-3.86-37.26-13.6-53.31-26.78-9.83-8.07-18.22-17.23-24.22-28.71-6.69-12.8-14.31-25.1-21.53-37.62-6.17-10.69-12.52-21.29-18.47-32.1-6.37-11.58.53-23.88 13.59-24.55 6.86-.35 11.8 2.85 15.17 8.71q9.45 16.41 18.92 32.82c1.38 2.39 3.17 3.93 6.15 3.21s3.91-2.91 4-5.69c0-.7 0-1.4 0-2.1q0-71.14 0-142.3c0-2.39 0-4.79.12-7.16a16.22 16.22 0 0 1 16.26-15.06c9.57 0 16.42 7.21 16.44 17.51.06 29.61 0 59.22 0 88.83 0 1.63.15 3.24.22 4.91h10.08v-80.1c0-12.78-.06-25.55 0-38.32.06-7.87 4.69-14.06 11.75-16.14a16.6 16.6 0 0 1 4.8-.7h.46c8.67.25 15.76 7.53 15.77 17.55q.06 56.41 0 112.84v4.83h10.26v-94.45c0-1.54-.05-3.1.1-4.63a16.4 16.4 0 0 1 32.73.33c.13 1.68.09 3.36.09 5.05v93.83h10.26v-4.87c0-18 0-35.92 0-53.89 0-10.21 7-17.66 16.35-17.67s16.44 7.35 16.45 17.55q.13 67.15.05 134.31z" fill="#fff"/></g></g></g></svg>