<svg width="22" height="22" viewBox="0 0 22 22" fill="none" xmlns="http://www.w3.org/2000/svg">
<g clip-path="url(#clip0_1311_4399)">
<path fill-rule="evenodd" clip-rule="evenodd" d="M10.9939 17.3863C-8.80219 -5.79936 30.7901 -5.79936 10.9939 17.3863V17.3863Z" fill="#FF4A4A"/>
<path d="M10.9937 7.16619C12.1326 7.16619 13.0558 6.24295 13.0558 5.10409C13.0558 3.96522 12.1326 3.04199 10.9937 3.04199C9.85487 3.04199 8.93164 3.96522 8.93164 5.10409C8.93164 6.24295 9.85487 7.16619 10.9937 7.16619Z" fill="white"/>
<path fill-rule="evenodd" clip-rule="evenodd" d="M3.94426 12.7725H7.63026C8.48087 14.1902 9.57636 15.7238 10.9941 17.3864C12.4117 15.7238 13.5201 14.1902 14.3707 12.7725H18.0439C18.8816 12.7725 19.4744 13.4555 19.5646 14.2804L20.2348 20.4795C20.325 21.3044 19.5646 22.0003 18.7269 22.0003H3.27408C2.43635 22.0003 1.66306 21.3044 1.75328 20.4795L2.43635 14.2804C2.52657 13.4555 3.11942 12.7725 3.94426 12.7725Z" fill="#44C868"/>
<path fill-rule="evenodd" clip-rule="evenodd" d="M19.7457 15.9814L20.0551 18.7782H15.1962L16.0469 22.0002H13.1599L12.2964 18.7782H1.94727L2.24369 15.9814H9.86056C10.2214 16.4454 10.5952 16.9094 10.9947 17.3862C11.4071 16.9094 11.7809 16.4454 12.1418 15.9814H19.7457Z" fill="#FFBB24"/>
<path fill-rule="evenodd" clip-rule="evenodd" d="M13.1593 22.0003L12.2958 18.7783H1.9466L1.75328 20.4796C1.66306 21.3044 2.43635 22.0003 3.27408 22.0003H13.1593Z" fill="#1EA4E9"/>
</g>
<defs>
<clipPath id="clip0_1311_4399">
<rect width="22" height="22" fill="white"/>
</clipPath>
</defs>
</svg>
