<svg width="22" height="22" viewBox="0 0 22 22" fill="none" xmlns="http://www.w3.org/2000/svg">
<path d="M11.0277 22.0136C13.0559 22.0136 14.9946 21.4636 16.6927 20.4118C16.9815 20.6111 17.3252 20.728 17.7034 20.728C18.6865 20.728 19.4909 19.9305 19.4909 18.9405C19.4909 17.9574 18.6934 17.153 17.7034 17.153C16.7202 17.153 15.9159 17.9505 15.9159 18.9405C15.9159 19.0918 15.9434 19.2361 15.9777 19.3805C14.4927 20.2811 12.8015 20.7624 11.0277 20.7624C5.70649 20.7624 1.37524 16.4311 1.37524 11.1099C1.37524 9.02676 2.02837 7.05363 3.25899 5.40363L2.26212 4.65426C0.866492 6.52426 0.130867 8.75863 0.130867 11.1099C0.123992 17.1255 5.01899 22.0136 11.0277 22.0136ZM17.7034 18.4111C17.999 18.4111 18.2396 18.6518 18.2396 18.9474C18.2396 19.243 17.999 19.4836 17.7034 19.4836C17.4077 19.4836 17.1671 19.243 17.1671 18.9474C17.1671 18.6518 17.4077 18.4111 17.7034 18.4111ZM11.0277 0.192383C9.00649 0.192383 7.08837 0.742383 5.40399 1.78051C5.10149 1.53988 4.71649 1.38863 4.30399 1.38863C3.32087 1.38863 2.51649 2.18613 2.51649 3.17613C2.51649 4.15926 3.31399 4.96363 4.30399 4.96363C5.28712 4.96363 6.09149 4.16613 6.09149 3.17613C6.09149 3.06613 6.07774 2.95613 6.05712 2.85301C7.54212 1.93176 9.24712 1.45051 11.0346 1.45051C16.3559 1.45051 20.6871 5.78863 20.6871 11.1168C20.6871 13.1999 20.034 15.173 18.8034 16.823L19.8071 17.5724C21.2027 15.7024 21.9384 13.468 21.9384 11.1168C21.9315 5.09426 17.0434 0.192383 11.0277 0.192383ZM4.30399 3.70551C4.00837 3.70551 3.76774 3.46488 3.76774 3.16926C3.76774 2.87363 4.00837 2.63301 4.30399 2.63301C4.59962 2.63301 4.84024 2.87363 4.84024 3.16926C4.83337 3.46488 4.59274 3.70551 4.30399 3.70551Z" fill="url(#paint0_linear_1311_4361)"/>
<defs>
<linearGradient id="paint0_linear_1311_4361" x1="0.125298" y1="11.1049" x2="21.9324" y2="11.1049" gradientUnits="userSpaceOnUse">
<stop stop-color="#3873F4"/>
<stop offset="1" stop-color="#E3547A"/>
</linearGradient>
</defs>
</svg>
