<svg width="22" height="22" viewBox="0 0 22 22" fill="none" xmlns="http://www.w3.org/2000/svg">
<path d="M16.1426 5.29842C16.1426 6.75449 15.6204 8.01485 14.5903 9.04509C13.5603 10.0752 12.2997 10.5973 10.8437 10.5973H10.8412C9.38693 10.5968 8.12724 10.0747 7.09717 9.04509C6.06693 8.01485 5.54492 6.75449 5.54492 5.29842C5.54492 3.84285 6.06693 2.58232 7.09717 1.55225C8.12674 0.522507 9.38643 0.000503542 10.8412 0H10.8437C12.2992 0 13.5598 0.522171 14.5903 1.55225C15.6204 2.58232 16.1426 3.84285 16.1426 5.29842Z" fill="#FFBB85"/>
<path d="M20.1596 18.2163C20.1596 19.3651 19.7942 20.2951 19.0744 20.9801C18.3631 21.657 17.4223 21.9999 16.2784 21.9999H5.6853C4.54143 21.9999 3.60065 21.657 2.88982 20.9801C2.16959 20.2946 1.80469 19.3647 1.80469 18.2163C1.80469 17.7745 1.81929 17.3375 1.8485 16.9172C1.8782 16.4875 1.93829 16.0199 2.02692 15.5266C2.11621 15.0292 2.23102 14.5591 2.36848 14.1294C2.51115 13.6846 2.70418 13.2459 2.94302 12.8256C3.1911 12.3893 3.48248 12.0093 3.80911 11.6965C4.15152 11.369 4.57013 11.106 5.05403 10.9143C5.53625 10.7236 6.07085 10.627 6.64287 10.627C6.86728 10.627 7.08464 10.7188 7.50359 10.9917C7.76576 11.1627 8.06789 11.3574 8.4014 11.5706C8.68942 11.7542 9.0795 11.9264 9.56172 12.082C9.98553 12.2191 10.4157 12.2957 10.8407 12.3089C10.8875 12.3106 10.9344 12.3115 10.9812 12.3115C11.4532 12.3115 11.9305 12.2341 12.4012 12.082C12.8834 11.9264 13.274 11.7542 13.5618 11.5706C13.8989 11.3552 14.201 11.1607 14.4593 10.9922C14.8786 10.7188 15.0956 10.627 15.3205 10.627C15.8921 10.627 16.4267 10.7236 16.9092 10.9143C17.3931 11.106 17.8117 11.3695 18.1538 11.6965C18.4809 12.0093 18.7723 12.3893 19.0202 12.8256C19.2592 13.2462 19.4526 13.6846 19.5948 14.1289C19.7324 14.5591 19.8475 15.0292 19.9368 15.5269C20.0249 16.0207 20.0852 16.4883 20.1147 16.9168C20.1445 17.3358 20.1591 17.7729 20.1596 18.2163Z" fill="#6AA9FF"/>
<path d="M10.8424 10.5973H10.8398V0H10.8424C12.2979 0 13.5585 0.522171 14.589 1.55225C15.6191 2.58232 16.1413 3.84285 16.1413 5.29842C16.1413 6.75449 15.6191 8.01485 14.589 9.04509C13.559 10.0752 12.2984 10.5973 10.8424 10.5973Z" fill="#F5A86C"/>
<path d="M20.1587 18.2163C20.1587 19.3651 19.7933 20.2951 19.0736 20.9801C18.3622 21.657 17.4214 21.9999 16.2776 21.9999H10.8398V12.3089C10.8867 12.3106 10.9335 12.3115 10.9803 12.3115C11.4523 12.3115 11.9297 12.2341 12.4003 12.082C12.8825 11.9264 13.2731 11.7542 13.561 11.5706C13.898 11.3552 14.2001 11.1607 14.4585 10.9922C14.8777 10.7188 15.0948 10.627 15.3197 10.627C15.8912 10.627 16.4258 10.7236 16.9083 10.9143C17.3922 11.106 17.8109 11.3695 18.1529 11.6965C18.4801 12.0093 18.7714 12.3893 19.0193 12.8256C19.2584 13.2462 19.4517 13.6846 19.5939 14.1289C19.7315 14.5591 19.8467 15.0292 19.936 15.5269C20.0241 16.0207 20.0843 16.4883 20.1139 16.9168C20.1436 17.3358 20.1582 17.7729 20.1587 18.2163Z" fill="#2682FF"/>
</svg>
