<svg width="20" height="20" viewBox="0 0 20 20" fill="none" xmlns="http://www.w3.org/2000/svg">
<path d="M18.5938 7.59375H17.5322C17.3979 7.17458 17.2286 6.76741 17.0262 6.37653L17.778 5.62475C17.9057 5.49707 18.007 5.34549 18.0761 5.17866C18.1452 5.01183 18.1808 4.83303 18.1808 4.65245C18.1808 4.47188 18.1452 4.29307 18.0761 4.12625C18.007 3.95942 17.9057 3.80784 17.778 3.68016L16.3198 2.22197C16.1922 2.09428 16.0406 1.99299 15.8738 1.92389C15.7069 1.85478 15.5281 1.81922 15.3475 1.81922C15.167 1.81922 14.9882 1.85478 14.8213 1.92389C14.6545 1.99299 14.5029 2.09428 14.3752 2.22197L13.6235 2.97375C13.2326 2.77136 12.8254 2.6021 12.4062 2.46775V1.40625C12.4062 1.04158 12.2614 0.691841 12.0035 0.433978C11.7457 0.176116 11.3959 0.03125 11.0312 0.03125H8.96875C8.60408 0.03125 8.25434 0.176116 7.99648 0.433978C7.73862 0.691841 7.59375 1.04158 7.59375 1.40625V2.46775C7.17458 2.6021 6.76741 2.77136 6.37653 2.97375L5.62475 2.22197C5.49707 2.09428 5.34549 1.99299 5.17866 1.92389C5.01183 1.85478 4.83303 1.81922 4.65245 1.81922C4.47188 1.81922 4.29307 1.85478 4.12625 1.92389C3.95942 1.99299 3.80784 2.09428 3.68016 2.22197L2.22197 3.68016C2.09428 3.80784 1.99299 3.95942 1.92389 4.12625C1.85478 4.29307 1.81922 4.47188 1.81922 4.65245C1.81922 4.83303 1.85478 5.01183 1.92389 5.17866C1.99299 5.34549 2.09428 5.49707 2.22197 5.62475L2.97375 6.37653C2.77136 6.76741 2.6021 7.17458 2.46775 7.59375H1.40625C1.04158 7.59375 0.691841 7.73862 0.433978 7.99648C0.176116 8.25434 0.03125 8.60408 0.03125 8.96875V11.0312C0.03125 11.3959 0.176116 11.7457 0.433978 12.0035C0.691841 12.2614 1.04158 12.4062 1.40625 12.4062H2.46775C2.6021 12.8254 2.77136 13.2326 2.97375 13.6235L2.22197 14.3752C2.09428 14.5029 1.99299 14.6545 1.92389 14.8213C1.85478 14.9882 1.81922 15.167 1.81922 15.3475C1.81922 15.5281 1.85478 15.7069 1.92389 15.8738C1.99299 16.0406 2.09428 16.1922 2.22197 16.3198L3.68016 17.778C3.80784 17.9057 3.95942 18.007 4.12625 18.0761C4.29307 18.1452 4.47188 18.1808 4.65245 18.1808C4.83303 18.1808 5.01183 18.1452 5.17866 18.0761C5.34549 18.007 5.49707 17.9057 5.62475 17.778L6.37653 17.0262C6.76741 17.2286 7.17458 17.3979 7.59375 17.5322V18.5938C7.59375 18.9584 7.73862 19.3082 7.99648 19.566C8.25434 19.8239 8.60408 19.9688 8.96875 19.9688H11.0312C11.3959 19.9688 11.7457 19.8239 12.0035 19.566C12.2614 19.3082 12.4062 18.9584 12.4062 18.5938V17.5322C12.8254 17.3979 13.2326 17.2286 13.6235 17.0262L14.3752 17.778C14.5029 17.9057 14.6545 18.007 14.8213 18.0761C14.9882 18.1452 15.167 18.1808 15.3475 18.1808C15.5281 18.1808 15.7069 18.1452 15.8738 18.0761C16.0406 18.007 16.1922 17.9057 16.3198 17.778L17.778 16.3198C17.9057 16.1922 18.007 16.0406 18.0761 15.8738C18.1452 15.7069 18.1808 15.5281 18.1808 15.3475C18.1808 15.167 18.1452 14.9882 18.0761 14.8213C18.007 14.6545 17.9057 14.5029 17.778 14.3752L17.0262 13.6235C17.2286 13.2326 17.3979 12.8254 17.5322 12.4062H18.5938C18.9584 12.4062 19.3082 12.2614 19.566 12.0035C19.8239 11.7457 19.9688 11.3959 19.9688 11.0312V8.96875C19.9688 8.60408 19.8239 8.25434 19.566 7.99648C19.3082 7.73862 18.9584 7.59375 18.5938 7.59375ZM10 14.125C9.18415 14.125 8.38663 13.8831 7.70827 13.4298C7.02992 12.9766 6.50121 12.3323 6.189 11.5786C5.87679 10.8248 5.7951 9.99542 5.95426 9.19525C6.11343 8.39508 6.50629 7.66008 7.08318 7.08318C7.66008 6.50629 8.39508 6.11343 9.19525 5.95426C9.99542 5.7951 10.8248 5.87679 11.5786 6.189C12.3323 6.50121 12.9766 7.02992 13.4298 7.70827C13.8831 8.38663 14.125 9.18415 14.125 10C14.125 11.094 13.6904 12.1432 12.9168 12.9168C12.1432 13.6904 11.094 14.125 10 14.125Z" fill="#3392E6"/>
</svg>
