<svg width="22" height="22" viewBox="0 0 22 22" fill="none" xmlns="http://www.w3.org/2000/svg">
<path d="M20.625 17.5312V12.9879L18.5625 8.59375H13.75V17.5312H20.625Z" fill="#C12B35"/>
<path d="M16.5 14.6592H15.125C15.0338 14.6592 14.9464 14.623 14.8819 14.5585C14.8175 14.494 14.7812 14.4066 14.7812 14.3154C14.7812 14.2243 14.8175 14.1368 14.8819 14.0724C14.9464 14.0079 15.0338 13.9717 15.125 13.9717H16.5C16.5912 13.9717 16.6786 14.0079 16.7431 14.0724C16.8075 14.1368 16.8438 14.2243 16.8438 14.3154C16.8438 14.4066 16.8075 14.494 16.7431 14.5585C16.6786 14.623 16.5912 14.6592 16.5 14.6592Z" fill="#97262E"/>
<path d="M19.4762 18.9062H21.3125V17.5312H19.4762H3.55541H0.6875V18.9062H3.55506H19.4762Z" fill="#CCCED5"/>
<path d="M1.375 17.5312V6.53125C1.375 6.34891 1.44743 6.17405 1.57636 6.04511C1.7053 5.91618 1.88016 5.84375 2.0625 5.84375H13.0625C13.2448 5.84375 13.4197 5.91618 13.5486 6.04511C13.6776 6.17405 13.75 6.34891 13.75 6.53125V17.5312H1.375Z" fill="#F4AC1C"/>
<path d="M8.43666 15.8125C8.893 15.8125 9.34487 15.7226 9.76647 15.548C10.1881 15.3734 10.5711 15.1174 10.8938 14.7947C11.2165 14.472 11.4725 14.0889 11.6471 13.6673C11.8217 13.2457 11.9116 12.7939 11.9116 12.3375V7.17475C11.9117 6.99995 11.8773 6.82685 11.8104 6.66535C11.7435 6.50384 11.6455 6.35709 11.5219 6.23349C11.3983 6.10989 11.2515 6.01185 11.09 5.94497C10.9285 5.8781 10.7554 5.8437 10.5806 5.84375H2.0625C1.88016 5.84375 1.7053 5.91618 1.57636 6.04511C1.44743 6.17405 1.375 6.34891 1.375 6.53125V15.8125H8.43666Z" fill="#FFC239"/>
<path d="M17.5312 20.2812C18.6703 20.2812 19.5938 19.3578 19.5938 18.2188C19.5938 17.0797 18.6703 16.1562 17.5312 16.1562C16.3922 16.1562 15.4688 17.0797 15.4688 18.2188C15.4688 19.3578 16.3922 20.2812 17.5312 20.2812Z" fill="#181A1C"/>
<path d="M5.5 20.2812C6.63909 20.2812 7.5625 19.3578 7.5625 18.2188C7.5625 17.0797 6.63909 16.1562 5.5 16.1562C4.36091 16.1562 3.4375 17.0797 3.4375 18.2188C3.4375 19.3578 4.36091 20.2812 5.5 20.2812Z" fill="#181A1C"/>
<path d="M17.5312 18.9062C17.9109 18.9062 18.2188 18.5984 18.2188 18.2188C18.2188 17.8391 17.9109 17.5312 17.5312 17.5312C17.1516 17.5312 16.8438 17.8391 16.8438 18.2188C16.8438 18.5984 17.1516 18.9062 17.5312 18.9062Z" fill="#E0E2E6"/>
<path d="M5.5 18.9062C5.8797 18.9062 6.1875 18.5984 6.1875 18.2188C6.1875 17.8391 5.8797 17.5312 5.5 17.5312C5.1203 17.5312 4.8125 17.8391 4.8125 18.2188C4.8125 18.5984 5.1203 18.9062 5.5 18.9062Z" fill="#E0E2E6"/>
<path d="M20.625 13.0625H15.125V8.59375H18.5625L20.625 12.9879" fill="#76D8FF"/>
<path d="M16.5 14.4375H15.125C15.0338 14.4375 14.9464 14.4013 14.8819 14.3368C14.8175 14.2724 14.7812 14.1849 14.7812 14.0938C14.7812 14.0026 14.8175 13.9151 14.8819 13.8507C14.9464 13.7862 15.0338 13.75 15.125 13.75H16.5C16.5912 13.75 16.6786 13.7862 16.7431 13.8507C16.8075 13.9151 16.8438 14.0026 16.8438 14.0938C16.8438 14.1849 16.8075 14.2724 16.7431 14.3368C16.6786 14.4013 16.5912 14.4375 16.5 14.4375Z" fill="#2B2E33"/>
<path d="M4.81275 15.707H1.76953C1.67836 15.707 1.59093 15.6708 1.52646 15.6063C1.462 15.5419 1.42578 15.4544 1.42578 15.3633C1.42578 15.2721 1.462 15.1847 1.52646 15.1202C1.59093 15.0557 1.67836 15.0195 1.76953 15.0195H4.81275C4.90392 15.0195 4.99135 15.0557 5.05582 15.1202C5.12028 15.1847 5.1565 15.2721 5.1565 15.3633C5.1565 15.4544 5.12028 15.5419 5.05582 15.6063C4.99135 15.6708 4.90392 15.707 4.81275 15.707Z" fill="#F4AC1C"/>
<path d="M6.1875 14.332H2.75C2.65883 14.332 2.5714 14.2958 2.50693 14.2313C2.44247 14.1669 2.40625 14.0794 2.40625 13.9883C2.40625 13.8971 2.44247 13.8097 2.50693 13.7452C2.5714 13.6807 2.65883 13.6445 2.75 13.6445H6.1875C6.27867 13.6445 6.3661 13.6807 6.43057 13.7452C6.49503 13.8097 6.53125 13.8971 6.53125 13.9883C6.53125 14.0794 6.49503 14.1669 6.43057 14.2313C6.3661 14.2958 6.27867 14.332 6.1875 14.332Z" fill="#F4AC1C"/>
<path d="M20.625 14.0938H19.25C19.1588 14.0938 19.0714 14.13 19.0069 14.1944C18.9425 14.2589 18.9062 14.3463 18.9062 14.4375V15.125C18.9062 15.2162 18.9425 15.3036 19.0069 15.3681C19.0714 15.4325 19.1588 15.4688 19.25 15.4688H20.625V14.0938Z" fill="#F4AC1C"/>
<path d="M18.9062 18.9062C18.7239 18.9062 18.549 18.8338 18.4201 18.7049C18.2912 18.576 18.2188 18.4011 18.2188 18.2188C18.2188 18.0364 18.1463 17.8615 18.0174 17.7326C17.8885 17.6037 17.7136 17.5312 17.5312 17.5312C17.3489 17.5312 17.174 17.6037 17.0451 17.7326C16.9162 17.8615 16.8438 18.0364 16.8438 18.2188C16.8438 18.4011 16.7713 18.576 16.6424 18.7049C16.5135 18.8338 16.3386 18.9062 16.1562 18.9062C15.9739 18.9062 15.799 18.8338 15.6701 18.7049C15.5412 18.576 15.4688 18.4011 15.4688 18.2188C15.4688 17.6717 15.686 17.1471 16.0728 16.7603C16.4596 16.3735 16.9842 16.1563 17.5312 16.1562C18.0783 16.1563 18.6029 16.3735 18.9897 16.7603C19.3765 17.1471 19.5938 17.6717 19.5938 18.2188C19.5938 18.4011 19.5213 18.576 19.3924 18.7049C19.2635 18.8338 19.0886 18.9062 18.9062 18.9062Z" fill="#2B2E33"/>
<path d="M6.875 18.9062C6.69266 18.9062 6.5178 18.8338 6.38886 18.7049C6.25993 18.576 6.1875 18.4011 6.1875 18.2188C6.1875 18.0364 6.11507 17.8615 5.98614 17.7326C5.8572 17.6037 5.68234 17.5312 5.5 17.5312C5.31766 17.5312 5.1428 17.6037 5.01386 17.7326C4.88493 17.8615 4.8125 18.0364 4.8125 18.2188C4.8125 18.4011 4.74007 18.576 4.61114 18.7049C4.4822 18.8338 4.30734 18.9062 4.125 18.9062C3.94266 18.9062 3.7678 18.8338 3.63886 18.7049C3.50993 18.576 3.4375 18.4011 3.4375 18.2188C3.4375 17.6717 3.6548 17.1471 4.04159 16.7603C4.42839 16.3735 4.95299 16.1563 5.5 16.1562C6.04701 16.1563 6.57161 16.3735 6.95841 16.7603C7.3452 17.1471 7.5625 17.6717 7.5625 18.2188C7.5625 18.4011 7.49007 18.576 7.36114 18.7049C7.2322 18.8338 7.05734 18.9062 6.875 18.9062Z" fill="#2B2E33"/>
<path d="M13.9529 17.5312H9.08984C8.71015 17.5312 8.40234 17.8391 8.40234 18.2188C8.40234 18.5984 8.71015 18.9062 9.08984 18.9062H13.9529C14.3326 18.9062 14.6404 18.5984 14.6404 18.2188C14.6404 17.8391 14.3326 17.5312 13.9529 17.5312Z" fill="#F3F3F5"/>
<path d="M0.6875 17.5312H2.93872V17.788C2.93872 18.0844 2.8211 18.3686 2.61169 18.5782C2.40228 18.7879 2.11821 18.9059 1.82188 18.9062H0.6875V17.5312Z" fill="#F3F3F5"/>
<path d="M20.0215 17.5312H21.3123V18.9062H20.82C20.6082 18.9062 20.4051 18.8221 20.2554 18.6724C20.1056 18.5226 20.0215 18.3195 20.0215 18.1077V17.5312Z" fill="#F3F3F5"/>
<path d="M19.3535 14.0938H20.6254V15.224H19.9296C19.8541 15.2242 19.7792 15.2095 19.7093 15.1808C19.6394 15.152 19.5759 15.1097 19.5224 15.0564C19.4688 15.003 19.4264 14.9396 19.3974 14.8698C19.3684 14.8 19.3535 14.7252 19.3535 14.6496V14.0938Z" fill="#FFC239"/>
<path d="M16.0371 9.37853V10.3984C16.0371 10.6678 16.0902 10.9346 16.1933 11.1835C16.2964 11.4323 16.4475 11.6585 16.638 11.8489C16.8285 12.0394 17.0547 12.1905 17.3036 12.2936C17.5525 12.3966 17.8192 12.4496 18.0886 12.4496H20.3728L18.563 8.59375H16.8219C16.6138 8.59375 16.4141 8.67643 16.267 8.82361C16.1198 8.97078 16.0371 9.17039 16.0371 9.37853Z" fill="#CCF1FF"/>
<path d="M1.74023 8.71983V6.90311C1.74023 6.73974 1.80513 6.58305 1.92066 6.46753C2.03618 6.35201 2.19286 6.28711 2.35623 6.28711H4.1733C4.33667 6.28711 4.49335 6.35201 4.60887 6.46753C4.7244 6.58305 4.7893 6.73974 4.7893 6.90311C4.78927 7.06647 4.72436 7.22314 4.60883 7.33864L2.79177 9.15536C2.67626 9.27089 2.5196 9.3358 2.35623 9.33583C2.19286 9.33583 2.03618 9.27093 1.92066 9.15541C1.80513 9.03988 1.74023 8.8832 1.74023 8.71983Z" fill="#FFDA88"/>
<path d="M4.8125 15.4688H0.6875C0.596332 15.4688 0.508898 15.4325 0.444432 15.3681C0.379966 15.3036 0.34375 15.2162 0.34375 15.125C0.34375 15.0338 0.379966 14.9464 0.444432 14.8819C0.508898 14.8175 0.596332 14.7812 0.6875 14.7812H4.8125C4.90367 14.7812 4.9911 14.8175 5.05557 14.8819C5.12003 14.9464 5.15625 15.0338 5.15625 15.125C5.15625 15.2162 5.12003 15.3036 5.05557 15.3681C4.9911 15.4325 4.90367 15.4688 4.8125 15.4688Z" fill="#E63A45"/>
<path d="M6.1875 14.0938H2.75C2.65883 14.0938 2.5714 14.0575 2.50693 13.9931C2.44247 13.9286 2.40625 13.8412 2.40625 13.75C2.40625 13.6588 2.44247 13.5714 2.50693 13.5069C2.5714 13.4425 2.65883 13.4062 2.75 13.4062H6.1875C6.27867 13.4062 6.3661 13.4425 6.43057 13.5069C6.49503 13.5714 6.53125 13.6588 6.53125 13.75C6.53125 13.8412 6.49503 13.9286 6.43057 13.9931C6.3661 14.0575 6.27867 14.0938 6.1875 14.0938Z" fill="#E63A45"/>
<path d="M10.992 5.84375H4.33594C4.37537 6.49277 4.60464 7.1159 4.99525 7.63572L7.10313 11.3242C7.15952 11.423 7.24108 11.5053 7.33951 11.5624C7.43795 11.6196 7.54977 11.6497 7.66361 11.6497C7.77745 11.6497 7.88927 11.6196 7.9877 11.5624C8.08614 11.5053 8.1677 11.423 8.22409 11.3242C9.00681 9.95466 10.3327 7.634 10.333 7.634C10.7231 7.11459 10.9522 6.49213 10.992 5.84375Z" fill="#F4AC1C"/>
<path d="M5.19102 6.66875L7.66602 11L10.141 6.66875C10.4857 6.20911 10.6957 5.66256 10.7473 5.09034C10.7989 4.51811 10.6901 3.94282 10.4332 3.42893C10.1762 2.91504 9.78124 2.48286 9.2925 2.1808C8.80376 1.87874 8.24056 1.71875 7.66602 1.71875C7.09147 1.71875 6.52828 1.87874 6.03954 2.1808C5.5508 2.48286 5.15583 2.91504 4.89888 3.42893C4.64194 3.94282 4.53317 4.51811 4.58477 5.09034C4.63637 5.66256 4.84629 6.20911 5.19102 6.66875Z" fill="#C12B35"/>
<path d="M10.1379 6.6683C10.5154 6.16483 10.7305 5.55818 10.7543 4.92931C10.7782 4.30044 10.6096 3.67925 10.2712 3.14865C10.0372 2.79437 9.71903 2.50365 9.34511 2.30252C8.97119 2.10138 8.55324 1.99609 8.12865 1.99609C7.70407 1.99609 7.28611 2.10138 6.91219 2.30252C6.53828 2.50365 6.22007 2.79437 5.98606 3.14865C5.64729 3.67909 5.47849 4.30028 5.5022 4.92922C5.52591 5.55816 5.741 6.16488 6.11875 6.6683L7.40093 8.91265C7.47413 9.04082 7.57992 9.14736 7.70757 9.22146C7.83522 9.29556 7.98019 9.33459 8.12779 9.33459C8.27539 9.33459 8.42037 9.29556 8.54802 9.22146C8.67567 9.14736 8.78146 9.04082 8.85465 8.91265L10.1379 6.6683Z" fill="#E63A45"/>
<path d="M7.66406 6.53125C8.6133 6.53125 9.38281 5.76174 9.38281 4.8125C9.38281 3.86326 8.6133 3.09375 7.66406 3.09375C6.71482 3.09375 5.94531 3.86326 5.94531 4.8125C5.94531 5.76174 6.71482 6.53125 7.66406 6.53125Z" fill="#F3F3F5"/>
<path d="M7.66225 3.09375C7.56455 3.09524 7.46714 3.10501 7.37109 3.12297C7.77027 3.19058 8.13261 3.39734 8.3939 3.7066C8.65518 4.01586 8.79853 4.40764 8.79853 4.8125C8.79853 5.21736 8.65518 5.60914 8.3939 5.9184C8.13261 6.22766 7.77027 6.43442 7.37109 6.50203C7.60548 6.54255 7.84573 6.53392 8.07661 6.47669C8.30748 6.41946 8.52394 6.31487 8.71226 6.16956C8.90058 6.02425 9.05665 5.84139 9.17056 5.63257C9.28448 5.42376 9.35375 5.19356 9.374 4.95656C9.39424 4.71956 9.36502 4.48093 9.28817 4.25583C9.21132 4.03072 9.08853 3.82404 8.92759 3.64889C8.76665 3.47374 8.57106 3.33396 8.35324 3.23839C8.13542 3.14283 7.90011 3.09357 7.66225 3.09375Z" fill="#E0E2E6"/>
<path d="M8.37631 8.69431C8.28504 8.6942 8.19543 8.66986 8.11665 8.62379C8.03787 8.57771 7.97272 8.51155 7.92787 8.43206C7.88303 8.35257 7.86008 8.2626 7.86138 8.17134C7.86268 8.08009 7.88818 7.99081 7.93527 7.91263L8.57156 6.85766C8.60463 6.79605 8.6499 6.74181 8.70459 6.69825C8.75929 6.65468 8.82228 6.62269 8.88972 6.60423C8.95717 6.58577 9.02766 6.58122 9.09692 6.59086C9.16618 6.6005 9.23276 6.62413 9.2926 6.6603C9.35244 6.69648 9.4043 6.74445 9.44502 6.80129C9.48574 6.85814 9.51448 6.92268 9.52947 6.99098C9.54447 7.05928 9.54542 7.12991 9.53226 7.19859C9.5191 7.26727 9.49211 7.33255 9.45293 7.39047L8.81665 8.44544C8.77082 8.52126 8.70622 8.58399 8.62909 8.62758C8.55196 8.67117 8.4649 8.69416 8.37631 8.69431Z" fill="#EB616A"/>
</svg>
