<svg width="22" height="22" viewBox="0 0 22 22" fill="none" xmlns="http://www.w3.org/2000/svg">
<g id="hugeicons:address-book">
<g id="Group">
<path id="Vector" d="M4.125 9.16665C4.125 5.7099 4.125 3.98106 5.19933 2.90765C6.27367 1.83423 8.00158 1.83331 11.4583 1.83331H12.8333C16.2901 1.83331 18.0189 1.83331 19.0923 2.90765C20.1657 3.98198 20.1667 5.7099 20.1667 9.16665V12.8333C20.1667 16.2901 20.1667 18.0189 19.0923 19.0923C18.018 20.1657 16.2901 20.1666 12.8333 20.1666H11.4583C8.00158 20.1666 6.27275 20.1666 5.19933 19.0923C4.12592 18.018 4.125 16.2901 4.125 12.8333V9.16665Z" stroke="#3E3E3E" stroke-width="1.5" stroke-linecap="round" stroke-linejoin="round"/>
<path id="Vector_2" d="M13.9793 9.16667V11.4583C13.9793 11.823 14.1242 12.1727 14.3821 12.4306C14.6399 12.6885 14.9897 12.8333 15.3543 12.8333C15.719 12.8333 16.0687 12.6885 16.3266 12.4306C16.5845 12.1727 16.7293 11.823 16.7293 11.4583V11C16.7293 9.96751 16.3807 8.96527 15.74 8.15566C15.0992 7.34605 14.2039 6.77649 13.199 6.53928C12.1942 6.30206 11.1386 6.41108 10.2035 6.84867C9.2683 7.28626 8.50828 8.02679 8.04654 8.95027C7.5848 9.87375 7.44839 10.9261 7.65942 11.9368C7.87045 12.9475 8.41654 13.8573 9.20924 14.5189C10.0019 15.1804 10.9948 15.555 12.0269 15.5818C13.059 15.6086 14.07 15.2862 14.896 14.6667M4.12516 5.5H1.8335M4.12516 11H1.8335M4.12516 16.5H1.8335M13.9793 11C13.9793 11.4862 13.7862 11.9525 13.4424 12.2964C13.0985 12.6402 12.6322 12.8333 12.146 12.8333C11.6598 12.8333 11.1935 12.6402 10.8496 12.2964C10.5058 11.9525 10.3127 11.4862 10.3127 11C10.3127 10.5138 10.5058 10.0475 10.8496 9.70364C11.1935 9.35982 11.6598 9.16667 12.146 9.16667C12.6322 9.16667 13.0985 9.35982 13.4424 9.70364C13.7862 10.0475 13.9793 10.5138 13.9793 11Z" stroke="#3E3E3E" stroke-width="1.5" stroke-linecap="round" stroke-linejoin="round"/>
</g>
</g>
</svg>
