<svg width="22" height="22" viewBox="0 0 22 22" fill="none" xmlns="http://www.w3.org/2000/svg">
<g id="solar:home-outline">
<path id="Vector" fill-rule="evenodd" clip-rule="evenodd" d="M14.896 3.4375V4.98667L16.7293 6.45333V3.4375H14.896ZM18.1043 7.55333V3.20833C18.1043 2.57583 17.591 2.0625 16.9585 2.0625H14.6668C14.0343 2.0625 13.521 2.57583 13.521 3.20833V3.88667L13.1479 3.58783C12.5383 3.10004 11.7809 2.83428 11.0002 2.83428C10.2194 2.83428 9.46198 3.10004 8.85241 3.58783L1.4045 9.54617C1.26203 9.66007 1.17065 9.82589 1.15045 10.0072C1.13025 10.1884 1.18289 10.3703 1.29679 10.5128C1.41069 10.6553 1.57652 10.7466 1.75779 10.7668C1.93907 10.787 2.12095 10.7344 2.26341 10.6205L2.97933 10.0467V19.4792H1.8335C1.65116 19.4792 1.47629 19.5516 1.34736 19.6805C1.21843 19.8095 1.146 19.9843 1.146 20.1667C1.146 20.349 1.21843 20.5239 1.34736 20.6528C1.47629 20.7817 1.65116 20.8542 1.8335 20.8542H20.1668C20.3492 20.8542 20.524 20.7817 20.653 20.6528C20.7819 20.5239 20.8543 20.349 20.8543 20.1667C20.8543 19.9843 20.7819 19.8095 20.653 19.6805C20.524 19.5516 20.3492 19.4792 20.1668 19.4792H19.021V10.0467L19.7378 10.6205C19.8805 10.7317 20.0613 10.7822 20.241 10.761C20.4207 10.7398 20.5847 10.6486 20.6976 10.5072C20.8105 10.3659 20.8632 10.1857 20.8441 10.0058C20.825 9.82589 20.7358 9.66074 20.5958 9.54617L18.1043 7.55333ZM17.646 8.94667L12.289 4.66125C11.9232 4.36848 11.4687 4.20897 11.0002 4.20897C10.5317 4.20897 10.0771 4.36848 9.71133 4.66125L4.35433 8.94667V19.4792H7.56266V15.5375C7.56266 14.9288 7.56266 14.4036 7.6195 13.9828C7.68 13.5318 7.81658 13.1001 8.16675 12.7499C8.51691 12.3997 8.94958 12.2632 9.39966 12.2027C9.82041 12.1458 10.3457 12.1458 10.9552 12.1458H11.0451C11.6547 12.1458 12.1799 12.1458 12.6007 12.2027C13.0517 12.2632 13.4834 12.3997 13.8336 12.7499C14.1837 13.1001 14.3203 13.5318 14.3808 13.9828C14.4377 14.4036 14.4377 14.9288 14.4377 15.5384V19.4792H17.646V8.94667ZM13.0627 19.4792V15.5833C13.0627 14.916 13.0608 14.4833 13.0187 14.1662C12.9783 13.8682 12.9142 13.7747 12.861 13.7225C12.8087 13.6702 12.7152 13.6052 12.4173 13.5648C12.0992 13.5227 11.6675 13.5208 11.0002 13.5208C10.3328 13.5208 9.90016 13.5227 9.583 13.5648C9.28508 13.6052 9.19158 13.6702 9.13933 13.7225C9.08708 13.7747 9.022 13.8682 8.98166 14.1662C8.9395 14.4843 8.93766 14.916 8.93766 15.5833V19.4792H13.0627ZM11.0002 7.5625C10.8497 7.5625 10.7007 7.59214 10.5617 7.64972C10.4227 7.7073 10.2963 7.79171 10.1899 7.89811C10.0835 8.00451 9.99914 8.13082 9.94155 8.26984C9.88397 8.40886 9.85433 8.55786 9.85433 8.70833C9.85433 8.85881 9.88397 9.00781 9.94155 9.14682C9.99914 9.28584 10.0835 9.41216 10.1899 9.51856C10.2963 9.62496 10.4227 9.70936 10.5617 9.76694C10.7007 9.82453 10.8497 9.85417 11.0002 9.85417C11.3041 9.85417 11.5955 9.73345 11.8104 9.51856C12.0253 9.30367 12.146 9.01223 12.146 8.70833C12.146 8.40444 12.0253 8.11299 11.8104 7.89811C11.5955 7.68322 11.3041 7.5625 11.0002 7.5625ZM8.47933 8.70833C8.47933 8.03977 8.74492 7.39858 9.21766 6.92583C9.69041 6.45309 10.3316 6.1875 11.0002 6.1875C11.6687 6.1875 12.3099 6.45309 12.7827 6.92583C13.2554 7.39858 13.521 8.03977 13.521 8.70833C13.521 9.3769 13.2554 10.0181 12.7827 10.4908C12.3099 10.9636 11.6687 11.2292 11.0002 11.2292C10.3316 11.2292 9.69041 10.9636 9.21766 10.4908C8.74492 10.0181 8.47933 9.3769 8.47933 8.70833Z" fill="#3E3E3E"/>
</g>
</svg>
