<svg width="22" height="22" viewBox="0 0 22 22" fill="none" xmlns="http://www.w3.org/2000/svg">
<g id="carbon:user-avatar">
<path id="Vector" d="M11 5.5C10.3201 5.5 9.65552 5.70161 9.09023 6.07932C8.52494 6.45704 8.08434 6.9939 7.82417 7.62203C7.56399 8.25015 7.49592 8.94131 7.62855 9.60812C7.76119 10.2749 8.08858 10.8874 8.56932 11.3682C9.05007 11.8489 9.66257 12.1763 10.3294 12.3089C10.9962 12.4416 11.6874 12.3735 12.3155 12.1133C12.9436 11.8532 13.4805 11.4126 13.8582 10.8473C14.2359 10.282 14.4375 9.61737 14.4375 8.9375C14.4375 8.02582 14.0753 7.15148 13.4307 6.50682C12.786 5.86216 11.9117 5.5 11 5.5ZM11 11C10.5921 11 10.1933 10.879 9.85414 10.6524C9.51496 10.4258 9.25061 10.1037 9.0945 9.72678C8.93839 9.34991 8.89755 8.93521 8.97713 8.53513C9.05671 8.13504 9.25315 7.76754 9.54159 7.47909C9.83004 7.19065 10.1975 6.99421 10.5976 6.91463C10.9977 6.83505 11.4124 6.87589 11.7893 7.032C12.1662 7.1881 12.4883 7.45246 12.7149 7.79164C12.9415 8.13081 13.0625 8.52958 13.0625 8.9375C13.062 9.48434 12.8445 10.0086 12.4578 10.3953C12.0711 10.782 11.5468 10.9995 11 11Z" fill="#3E3E3E"/>
<path id="Vector_2" d="M11 1.375C9.09636 1.375 7.23546 1.9395 5.65264 2.99711C4.06982 4.05471 2.83616 5.55793 2.10766 7.31667C1.37917 9.07541 1.18856 11.0107 1.55995 12.8777C1.93133 14.7448 2.84802 16.4598 4.1941 17.8059C5.54018 19.152 7.25519 20.0687 9.12226 20.4401C10.9893 20.8114 12.9246 20.6208 14.6833 19.8923C16.4421 19.1638 17.9453 17.9302 19.0029 16.3474C20.0605 14.7645 20.625 12.9036 20.625 11C20.6221 8.44818 19.6071 6.00172 17.8027 4.19731C15.9983 2.39291 13.5518 1.37791 11 1.375ZM6.875 18.1342V17.1875C6.87555 16.6407 7.09302 16.1164 7.4797 15.7297C7.86638 15.343 8.39066 15.1255 8.9375 15.125H13.0625C13.6093 15.1255 14.1336 15.343 14.5203 15.7297C14.907 16.1164 15.1245 16.6407 15.125 17.1875V18.1342C13.8732 18.8651 12.4496 19.2502 11 19.2502C9.55041 19.2502 8.12685 18.8651 6.875 18.1342ZM16.4952 17.1366C16.4818 16.2346 16.1145 15.374 15.4723 14.7405C14.8301 14.1069 13.9646 13.7512 13.0625 13.75H8.9375C8.03552 13.7513 7.17021 14.1072 6.52818 14.7407C5.88615 15.3742 5.51885 16.2347 5.5055 17.1366C4.25877 16.0234 3.37957 14.5577 2.98433 12.9337C2.58909 11.3097 2.69645 9.60392 3.29219 8.04228C3.88794 6.48063 4.94397 5.13677 6.32045 4.18864C7.69693 3.24051 9.32893 2.73283 11.0003 2.73283C12.6718 2.73283 14.3038 3.24051 15.6802 4.18864C17.0567 5.13677 18.1128 6.48063 18.7085 8.04228C19.3042 9.60392 19.4116 11.3097 19.0164 12.9337C18.6211 14.5577 17.7419 16.0234 16.4952 17.1366Z" fill="#3E3E3E"/>
</g>
</svg>
