<svg width="24" height="24" viewBox="0 0 24 24" fill="none" xmlns="http://www.w3.org/2000/svg">
<g id="Group">
<path id="Vector" fill-rule="evenodd" clip-rule="evenodd" d="M11.9999 1C12.5515 1 13.0952 1.04086 13.6248 1.11943L14.423 3.53779C15.1223 3.73736 15.787 4.02178 16.403 4.38005L18.6972 3.2738C19.5096 3.89764 20.2324 4.63305 20.8421 5.45645L19.695 7.73025C20.0423 8.35252 20.3157 9.02193 20.5027 9.72591L22.9069 10.5635C23.0394 11.5802 23.0304 12.6103 22.8802 13.6245L20.4619 14.4228C20.2637 15.1149 19.9808 15.7799 19.6196 16.4027L20.7259 18.697C20.1012 19.5096 19.3666 20.2315 18.5432 20.8419L16.2694 19.6948C15.6404 20.046 14.97 20.3174 14.2737 20.5025L13.4362 22.9067C12.4195 23.0392 11.3894 23.0302 10.3751 22.88L9.57687 20.4616C8.88474 20.2634 8.21973 19.9805 7.59692 19.6194L5.3027 20.7256C4.49007 20.1009 3.76818 19.3664 3.15776 18.543L4.30487 16.2692C3.95446 15.6397 3.68318 14.9694 3.49717 14.2735L1.09295 13.4344C0.960633 12.4182 0.969622 11.3886 1.11967 10.3749L3.53803 9.57663C3.7376 8.87736 4.02202 8.21266 4.38029 7.59668L3.27404 5.30246C3.89872 4.48983 4.6333 3.76794 5.45669 3.15751L7.73049 4.30463C8.3595 3.95337 9.0299 3.68204 9.72615 3.49693L10.5653 1.09271C11.041 1.03082 11.5202 0.999853 11.9999 1Z" stroke="black" stroke-width="0.933" stroke-linecap="round" stroke-linejoin="round"/>
<path id="Vector_2" d="M12.0003 16.7138C14.6038 16.7138 16.7145 14.6032 16.7145 11.9997C16.7145 9.39612 14.6038 7.28552 12.0003 7.28552C9.39673 7.28552 7.28613 9.39612 7.28613 11.9997C7.28613 14.6032 9.39673 16.7138 12.0003 16.7138Z" stroke="black" stroke-linecap="round" stroke-linejoin="round"/>
</g>
</svg>
